<svg width="161" height="154" viewBox="0 0 161 154" fill="none" xmlns="http://www.w3.org/2000/svg">
<path d="M57.4074 12.6146C41.8861 48.8357 26.2582 85.0112 10.5199 121.555C7.23647 129.246 4.02002 136.553 1.00527 143.942C-0.223937 146.955 -0.966925 150.193 2.71366 152.26C8.82256 155.689 19.4572 152.94 22.4012 146.688C30.2608 129.996 37.8059 113.157 45.4275 96.3539C55.4523 74.2532 65.1703 52.0082 75.5515 30.0766C79.9718 20.7383 82.3243 20.8247 87.9961 29.571C98.0913 45.1386 105.618 61.9834 111.801 79.4418L112.732 82.2657C112.732 82.7657 88.7322 82.2568 88.7322 82.2568C73.7322 82.2568 73.642 82.2568 65.7322 98.7657C63.6213 103.172 64.1547 106.279 68.9605 106.37C73.0734 106.448 81.3525 106.006 82.1642 106.766C83.2322 107.766 54.8757 147.203 55.7322 150C56.7322 153.266 65.5368 153.028 68.9605 150C75.6785 144.058 81.4232 135.637 87.5085 129.052C95.8697 120.003 103.689 110.456 111.899 101.264C113.786 99.1511 118.732 94.2657 119.025 95.425C119.732 94.2657 122.971 102.674 124.526 105.958C128.581 114.526 132.221 123.311 136.692 131.652C138.149 134.369 141.408 137.256 144.286 137.825C149.351 138.827 161.232 138.766 160.732 138.105C161.506 138.105 159.314 133.595 158.649 131.95C154.913 122.7 151.331 113.382 147.33 104.247C133.853 73.4764 120.187 42.7878 106.672 12.0331C103.5 4.81408 98.3505 0.420314 90.3533 0.104259C84.8917 -0.111592 79.4048 0.0400962 73.939 0.265376C65.6765 0.605937 60.5854 5.19825 57.4074 12.6146Z" fill="#0782F5"/>
</svg>
